<?xml version="1.0" encoding="iso-8859-1"?>
<!-- Generator: Adobe Illustrator 19.0.0, SVG Export Plug-In . SVG Version: 6.00 Build 0)  -->
<svg version="1.1" id="Capa_1" xmlns="http://www.w3.org/2000/svg" xmlns:xlink="http://www.w3.org/1999/xlink" x="0px" y="0px"
	 viewBox="0 0 512.004 512.004" style="enable-background:new 0 0 512.004 512.004;" xml:space="preserve">
<path style="fill:#FFC850;" d="M73.141,11.134c-10.511-8.541-26.226-1.06-26.226,12.482v215.506l176.92-104.544L73.141,11.134z"/>
<polygon style="fill:#EBAF4B;" points="46.915,219.434 143.417,141.026 46.915,32.33 "/>
<path style="fill:#FFC850;" d="M438.864,11.134c10.511-8.541,26.226-1.06,26.226,12.482v215.506L288.17,134.578L438.864,11.134z"/>
<polygon style="fill:#EBAF4B;" points="465.09,219.434 368.588,141.026 465.09,32.33 "/>
<ellipse style="fill:#FFDC64;" cx="256.001" cy="291.39" rx="225.17" ry="213.11"/>
<path style="fill:#FF8087;" d="M288.17,424.084v16.084c0,17.766-14.402,32.167-32.167,32.167l0,0
	c-17.766,0-32.167-14.402-32.167-32.167v-16.084L256.002,408L288.17,424.084z"/>
<path style="fill:#5D5360;" d="M273.76,341.29h-35.516c-7.668,0-11.914,8.888-7.093,14.852l17.759,21.971
	c3.65,4.515,10.534,4.515,14.185,0l17.759-21.971C285.674,350.179,281.429,341.29,273.76,341.29z"/>
<path style="fill:#FFC850;" d="M312.295,488.419c-124.358,0-225.171-95.412-225.171-213.108c0-86.427,54.392-160.782,132.518-194.22
	C112.58,97.547,30.831,185.417,30.831,291.394c0,117.697,100.813,213.108,225.171,213.108c33.04,0,64.385-6.79,92.652-18.889
	C336.814,487.434,324.679,488.419,312.295,488.419z"/>
<path style="fill:#4B3F4E;" d="M163.521,319.54L163.521,319.54c-15.481,0-28.146-12.666-28.146-28.146V275.31
	c0-15.48,12.666-28.146,28.146-28.146l0,0c15.48,0,28.146,12.666,28.146,28.146v16.084
	C191.668,306.874,179.002,319.54,163.521,319.54z"/>
<path style="fill:#5D5360;" d="M163.521,247.164c-1.376,0-2.696,0.215-4.021,0.408v39.801c0,8.883,7.201,16.084,16.084,16.084
	s16.084-7.201,16.084-16.084V275.31C191.668,259.83,179.002,247.164,163.521,247.164z"/>
<circle style="fill:#FFFFFF;" cx="163.521" cy="267.27" r="12.06"/>
<path style="fill:#4B3F4E;" d="M348.483,319.54L348.483,319.54c-15.481,0-28.146-12.666-28.146-28.146V275.31
	c0-15.48,12.666-28.146,28.146-28.146l0,0c15.48,0,28.146,12.666,28.146,28.146v16.084
	C376.63,306.874,363.964,319.54,348.483,319.54z"/>
<path style="fill:#5D5360;" d="M348.483,247.164c-1.376,0-2.696,0.215-4.021,0.408v39.801c0,8.883,7.201,16.084,16.084,16.084
	s16.084-7.201,16.084-16.084V275.31C376.63,259.83,363.964,247.164,348.483,247.164z"/>
<circle style="fill:#FFFFFF;" cx="348.481" cy="267.27" r="12.06"/>
<path style="fill:#4B3F4E;" d="M262.224,378.457l-17.759-35.154c-0.322-0.639-0.503-1.338-0.746-2.013h-5.474
	c-7.668,0-11.914,8.889-7.094,14.852l17.759,21.971c3.446,4.261,9.689,4.353,13.457,0.57
	C262.323,378.599,262.267,378.542,262.224,378.457z"/>
<path style="fill:#E6646E;" d="M223.835,424.084v16.084c0,2.552,0.371,5.003,0.933,7.383c11.153-1.384,21.819-5.237,31.235-11.545
	c9.416,6.309,20.082,10.161,31.235,11.545c0.562-2.38,0.933-4.831,0.933-7.383v-16.084L256.002,408L223.835,424.084z"/>
<path d="M199.168,291.394V275.31c0-5.345-1.156-10.488-3.437-15.287c-1.777-3.742-6.252-5.333-9.993-3.555s-5.333,6.252-3.555,9.993
	c1.317,2.771,1.985,5.749,1.985,8.849v16.084c0,11.384-9.262,20.646-20.646,20.646s-20.646-9.262-20.646-20.646V275.31
	c0-11.384,9.262-20.646,20.646-20.646c4.142,0,7.5-3.358,7.5-7.5s-3.358-7.5-7.5-7.5c-19.655,0-35.646,15.991-35.646,35.646v16.084
	c0,19.656,15.991,35.646,35.646,35.646S199.168,311.05,199.168,291.394z"/>
<path d="M384.13,291.394V275.31c0-5.345-1.156-10.488-3.437-15.287c-1.778-3.742-6.252-5.335-9.993-3.555
	c-3.741,1.778-5.333,6.252-3.555,9.993c1.317,2.771,1.985,5.749,1.985,8.849v16.084c0,11.384-9.262,20.646-20.646,20.646
	s-20.646-9.262-20.646-20.646V275.31c0-11.384,9.262-20.646,20.646-20.646c4.142,0,7.5-3.358,7.5-7.5s-3.358-7.5-7.5-7.5
	c-19.656,0-35.646,15.991-35.646,35.646v16.084c0,19.656,15.991,35.646,35.646,35.646S384.13,311.05,384.13,291.394z"/>
<path d="M323.371,406.142c-7.508,6.733-17.154,10.442-27.16,10.442c-8.231,0-16.159-2.444-22.927-7.068
	c-10.336-7.061-24.226-7.062-34.564,0c-6.768,4.624-14.696,7.068-22.927,7.068c-10.006,0-19.651-3.708-27.16-10.442
	c-3.084-2.766-7.825-2.508-10.591,0.576c-2.766,3.083-2.508,7.825,0.576,10.591c10.264,9.206,23.467,14.275,37.175,14.275
	c0.181,0,0.361-0.008,0.542-0.01v8.594c0,21.873,17.795,39.667,39.667,39.667s39.667-17.794,39.667-39.667v-8.594
	c0.181,0.002,0.361,0.01,0.542,0.01c13.708,0,26.91-5.07,37.175-14.275c3.084-2.766,3.342-7.507,0.576-10.591
	C331.196,403.634,326.455,403.376,323.371,406.142z M280.67,440.168c0,13.602-11.066,24.667-24.667,24.667
	c-13.601,0-24.667-11.065-24.667-24.667v-10.791c5.608-1.626,10.95-4.13,15.847-7.476c0.426-0.291,0.869-0.549,1.32-0.792v11.017
	c0,4.142,3.358,7.5,7.5,7.5c4.142,0,7.5-3.358,7.5-7.5v-11.017c0.451,0.243,0.895,0.501,1.32,0.792
	c4.897,3.346,10.239,5.85,15.847,7.476V440.168z"/>
<path d="M243.078,382.828c3.171,3.922,7.882,6.171,12.925,6.171s9.754-2.249,12.925-6.171l17.759-21.971
	c4.063-5.028,4.857-11.775,2.072-17.609c-2.786-5.834-8.533-9.458-14.998-9.458h-35.516c-6.465,0-12.212,3.625-14.998,9.458
	c-2.786,5.834-1.992,12.581,2.072,17.608L243.078,382.828z M236.782,349.712c0.292-0.612,0.784-0.922,1.462-0.922h35.516
	c0.678,0,1.17,0.31,1.462,0.922c0.292,0.611,0.224,1.189-0.202,1.715l-17.759,21.97c-0.402,0.498-0.907,0.602-1.26,0.602
	c-0.353,0-0.858-0.104-1.26-0.601l-17.759-21.971C236.558,350.901,236.49,350.324,236.782,349.712z"/>
<path d="M491.162,360.549c-4.126-1.109-8.518-2.102-13.093-2.994c6.974-21.134,10.604-43.38,10.604-66.161
	c0-28.146-5.531-55.478-16.084-80.898V23.617c0-9.187-5.153-17.347-13.448-21.295c-8.295-3.948-17.877-2.802-25.007,2.991
	l-97.343,79.091c-25.52-8.94-52.775-13.619-80.79-13.619s-55.27,4.679-80.79,13.619L77.87,5.313
	c-7.13-5.793-16.713-6.94-25.007-2.991C44.568,6.27,39.415,14.43,39.415,23.617v186.88c-10.552,25.419-16.084,52.752-16.084,80.897
	c0,22.781,3.631,45.028,10.604,66.161c-4.575,0.892-8.967,1.884-13.093,2.994c-4,1.075-6.371,5.189-5.296,9.189
	c0.9,3.349,3.929,5.555,7.238,5.555c0.644,0,1.3-0.084,1.952-0.259c4.498-1.209,9.366-2.272,14.481-3.211
	c5.046,12.239,11.264,24.031,18.587,35.262c-7.777,3.222-15.329,6.672-22.391,10.345c-3.675,1.911-5.105,6.439-3.194,10.114
	c1.336,2.57,3.951,4.042,6.66,4.042c1.165,0,2.348-0.272,3.454-0.847c7.575-3.939,15.815-7.628,24.332-11.052
	c7.434,9.818,15.759,19.136,24.961,27.846c43.928,41.575,102.304,64.471,164.375,64.471s120.448-22.896,164.375-64.471
	c9.203-8.71,17.529-18.028,24.963-27.847c8.515,3.424,16.755,7.114,24.331,11.053c1.105,0.575,2.288,0.847,3.454,0.847
	c2.709,0,5.324-1.472,6.661-4.042c1.911-3.675,0.481-8.203-3.194-10.114c-7.062-3.672-14.614-7.123-22.391-10.344
	c7.323-11.231,13.541-23.023,18.587-35.262c5.114,0.939,9.983,2.002,14.48,3.211c0.652,0.175,1.308,0.259,1.952,0.259
	c3.309,0,6.338-2.207,7.238-5.555C497.534,365.738,495.162,361.624,491.162,360.549z M443.594,16.955
	c2.634-2.14,6.037-2.548,9.102-1.088c3.043,1.448,4.864,4.317,4.89,7.68l-14.494,16.34c-2.749,3.099-2.465,7.839,0.634,10.588
	c1.428,1.267,3.205,1.889,4.974,1.889c2.07,0,4.132-0.853,5.614-2.523l3.277-3.694v134.921
	c-10.108-16.542-22.558-31.942-37.212-45.811c-7.629-7.22-15.703-13.863-24.147-19.935l36.821-41.512
	c2.749-3.099,2.465-7.839-0.634-10.588c-3.099-2.748-7.84-2.464-10.588,0.634l-38.168,43.03
	c-9.858-6.158-20.158-11.565-30.82-16.195L443.594,16.955z M59.309,15.866c3.066-1.459,6.468-1.051,9.102,1.088l90.751,73.736
	c-10.662,4.631-20.962,10.037-30.82,16.196l-73.923-83.34C54.445,20.183,56.266,17.314,59.309,15.866z M54.415,46.146l61.359,69.175
	c-8.444,6.072-16.518,12.714-24.147,19.935c-14.654,13.869-27.104,29.27-37.212,45.812C54.415,181.068,54.415,46.146,54.415,46.146z
	 M439.786,401.451c-44.225-16.348-90.399-25.459-92.884-25.943c-4.065-0.791-8.004,1.862-8.796,5.928s1.862,8.004,5.928,8.796
	c0.577,0.112,44.212,8.719,86.53,23.857c-39.719,50.29-103.181,82.914-174.562,82.914c-71.379,0-134.841-32.623-174.56-82.912
	c42.306-15.131,85.952-23.747,86.529-23.86c4.065-0.792,6.719-4.73,5.926-8.796c-0.792-4.065-4.728-6.716-8.795-5.927
	c-2.485,0.484-48.659,9.595-92.884,25.943c-6.807-10.107-12.7-20.812-17.582-32.009c44.27-5.719,97.442-4.227,98.104-4.206
	c4.145,0.152,7.597-3.131,7.722-7.271c0.125-4.14-3.13-7.598-7.271-7.722c-2.831-0.086-58.25-1.643-104.169,4.81
	c-6.93-20.054-10.692-41.447-10.692-63.658c0-113.373,97.647-205.609,217.671-205.609s217.671,92.236,217.671,205.609
	c0,22.211-3.763,43.604-10.692,63.658c-45.919-6.452-101.338-4.894-104.168-4.809c-4.14,0.125-7.396,3.582-7.271,7.722
	s3.573,7.385,7.722,7.271c0.661-0.02,53.833-1.513,98.104,4.207C452.486,380.639,446.593,391.344,439.786,401.451z"/>
<g>
</g>
<g>
</g>
<g>
</g>
<g>
</g>
<g>
</g>
<g>
</g>
<g>
</g>
<g>
</g>
<g>
</g>
<g>
</g>
<g>
</g>
<g>
</g>
<g>
</g>
<g>
</g>
<g>
</g>
</svg>
